<svg id="Capa_1" data-name="Capa 1" xmlns="http://www.w3.org/2000/svg" viewBox="0 0 400 400"><path d="M13,44.55l251.4,311.12c-1.95.12-3.2.27-4.45.27q-57.71,0-115.4.06a6.88,6.88,0,0,1-5.86-2.66Q77,280.47,15.14,207.65a9.62,9.62,0,0,1-2.27-5.7Q12.69,125,12.78,48.09C12.78,47.3,12.88,46.52,13,44.55Z"/><path d="M223.59,251.32,387.86,48.71c.15,2.3.31,3.65.31,5q0,54.66,0,109.33c0,11.88.09,23.75-.12,35.63a11.07,11.07,0,0,1-2.12,6.19q-18.23,23.52-36.82,46.73c-1,1.27-3,2.56-4.51,2.53q-59.1-1.1-118.19-2.53C225.75,251.58,225.09,251.47,223.59,251.32Z"/></svg>